<svg width="30" height="34" viewBox="0 0 30 34" fill="none" xmlns="http://www.w3.org/2000/svg">
<path d="M1.26095e-05 6.39462V30.1423C-0.00182695 30.858 0.197644 31.5601 0.576019 32.1695M1.26095e-05 6.39462L1.58135 6.39787C1.58136 6.39737 1.58136 6.39687 1.58136 6.39637M1.26095e-05 6.39462H1.58136V6.39637M1.26095e-05 6.39462C0.00350052 4.69972 0.684019 3.07524 1.89252 1.87676C3.10109 0.678281 4.73922 0.00345231 6.44837 0M1.58136 6.39637V30.1423V30.1464C1.58028 30.5652 1.69695 30.977 1.9195 31.3354M1.58136 6.39637C1.58438 5.12459 2.09506 3.90302 3.006 2.99961L1.89301 1.87725L3.00604 2.99958C3.9175 2.09575 5.15554 1.58435 6.45008 1.58134M1.9195 31.3354C1.91949 31.3354 1.91948 31.3354 1.91948 31.3354L0.576019 32.1695M1.9195 31.3354C2.14214 31.694 2.46239 31.9857 2.8457 32.1762M1.9195 31.3354L0.576019 32.1695M0.576019 32.1695L2.8457 32.1762M2.8457 32.1762C3.22906 32.3666 3.65934 32.4477 4.08786 32.4094C4.51634 32.3711 4.92434 32.2151 5.26626 31.9604L5.26794 31.9591L13.3119 25.983L13.318 25.9784L13.318 25.9784C13.8068 25.6189 14.3976 25.4258 15.0033 25.4258C15.609 25.4258 16.1998 25.6189 16.6886 25.9784L16.6946 25.9828L16.6945 25.9828L24.7319 31.9524L24.7347 31.9545C25.0761 32.2093 25.4836 32.3654 25.9117 32.404L25.9118 32.404C26.3401 32.4426 26.7701 32.362 27.1532 32.172L27.1533 32.1719C27.5365 31.9819 27.8568 31.6907 28.0794 31.3327L28.0795 31.3325C28.3023 30.9745 28.4193 30.5632 28.4187 30.1448L28.4186 30.1423L28.4186 6.39618C28.4156 5.12446 27.9049 3.90297 26.994 2.99962L2.8457 32.1762ZM6.44837 0V1.58134H6.45008M6.44837 0L6.45156 1.58134C6.45107 1.58134 6.45057 1.58134 6.45008 1.58134M6.44837 0L6.45008 1.58134M6.45008 1.58134H23.5499C24.8445 1.58435 26.0825 2.09575 26.994 2.99958L6.45008 1.58134ZM25.7698 33.979C26.4882 34.0438 27.2106 33.9086 27.8558 33.5887L23.789 33.2219C24.3654 33.652 25.0514 33.9142 25.7698 33.979Z" stroke="#60464C" stroke-width="3.16269"/>
</svg>
