<svg width="25" height="23" viewBox="0 0 25 23" fill="none" xmlns="http://www.w3.org/2000/svg">
<path d="M15.8105 0.699299C13.9453 0.167072 11.9971 1.24617 11.4648 3.11141L11.1865 4.08797C11.0059 4.72274 10.6787 5.30867 10.2344 5.79695L7.72949 8.55086C7.29492 9.02938 7.3291 9.77156 7.80762 10.2061C8.28613 10.6407 9.02832 10.6065 9.46289 10.128L11.9678 7.3741C12.6562 6.61727 13.1592 5.71395 13.4375 4.7325L13.7158 3.75594C13.8916 3.13582 14.541 2.77449 15.166 2.95028C15.791 3.12606 16.1475 3.77547 15.9717 4.40047L15.6934 5.37703C15.415 6.34871 14.9756 7.26668 14.3945 8.08699C14.1406 8.44344 14.1113 8.91219 14.3115 9.30281C14.5117 9.69344 14.9121 9.93758 15.3516 9.93758H21.875C22.3047 9.93758 22.6562 10.2891 22.6562 10.7188C22.6562 11.0509 22.4463 11.3389 22.1484 11.4513C21.7871 11.588 21.5137 11.8907 21.4209 12.2667C21.3281 12.6427 21.4258 13.0382 21.6797 13.3263C21.8018 13.463 21.875 13.6436 21.875 13.8438C21.875 14.2247 21.6016 14.5421 21.2402 14.6104C20.8398 14.6886 20.5029 14.9669 20.3613 15.3526C20.2197 15.7384 20.2832 16.168 20.5371 16.4903C20.6396 16.6222 20.7031 16.7882 20.7031 16.9737C20.7031 17.3009 20.498 17.5889 20.2051 17.7013C19.6436 17.921 19.3408 18.5264 19.502 19.1075C19.5215 19.171 19.5312 19.2442 19.5312 19.3175C19.5312 19.7472 19.1797 20.0987 18.75 20.0987H13.9893C13.374 20.0987 12.7686 19.918 12.2559 19.5763L9.24316 17.5694C8.70605 17.2081 7.97852 17.3546 7.61719 17.8966C7.25586 18.4386 7.40234 19.1612 7.94434 19.5225L10.957 21.5294C11.8555 22.13 12.9102 22.4473 13.9893 22.4473H18.75C20.4443 22.4473 21.8213 21.0997 21.875 19.42C22.5879 18.8487 23.0469 17.9698 23.0469 16.9786C23.0469 16.7589 23.0225 16.5489 22.9834 16.3438C23.7354 15.7725 24.2188 14.8692 24.2188 13.8536C24.2188 13.5362 24.1699 13.2286 24.082 12.9405C24.6484 12.3643 25 11.5831 25 10.7188C25 8.9952 23.6035 7.59383 21.875 7.59383H17.3682C17.5977 7.08602 17.793 6.55867 17.9443 6.02156L18.2227 5.045C18.7549 3.17977 17.6758 1.23153 15.8105 0.699299ZM1.5625 8.37508C0.698242 8.37508 0 9.07332 0 9.93758V20.8751C0 21.7393 0.698242 22.4376 1.5625 22.4376H4.6875C5.55176 22.4376 6.25 21.7393 6.25 20.8751V9.93758C6.25 9.07332 5.55176 8.37508 4.6875 8.37508H1.5625Z" fill="#BA435D"/>
</svg>
