<svg width="20" height="6" viewBox="0 0 20 6" fill="none" xmlns="http://www.w3.org/2000/svg">
<path d="M0 2.59754C0 1.90863 0.273147 1.24794 0.759353 0.760802C1.24556 0.273669 1.90499 0 2.59259 0C3.28019 0 3.93963 0.273669 4.42583 0.760802C4.91204 1.24794 5.18518 1.90863 5.18518 2.59754C5.18518 3.28645 4.91204 3.94715 4.42583 4.43428C3.93963 4.92141 3.28019 5.19508 2.59259 5.19508C1.90499 5.19508 1.24556 4.92141 0.759353 4.43428C0.273147 3.94715 0 3.28645 0 2.59754ZM7.40741 2.59754C7.40741 1.90863 7.68055 1.24794 8.16676 0.760802C8.65297 0.273669 9.3124 0 10 0C10.6876 0 11.347 0.273669 11.8332 0.760802C12.3194 1.24794 12.5926 1.90863 12.5926 2.59754C12.5926 3.28645 12.3194 3.94715 11.8332 4.43428C11.347 4.92141 10.6876 5.19508 10 5.19508C9.3124 5.19508 8.65297 4.92141 8.16676 4.43428C7.68055 3.94715 7.40741 3.28645 7.40741 2.59754ZM17.4074 0C18.095 0 18.7544 0.273669 19.2406 0.760802C19.7269 1.24794 20 1.90863 20 2.59754C20 3.28645 19.7269 3.94715 19.2406 4.43428C18.7544 4.92141 18.095 5.19508 17.4074 5.19508C16.7198 5.19508 16.0604 4.92141 15.5742 4.43428C15.088 3.94715 14.8148 3.28645 14.8148 2.59754C14.8148 1.90863 15.088 1.24794 15.5742 0.760802C16.0604 0.273669 16.7198 0 17.4074 0Z" fill="#6A6A6A"/>
</svg>
