<svg width="25" height="24" viewBox="0 0 25 24" fill="none" xmlns="http://www.w3.org/2000/svg">
<path d="M10.7231 1.56841C11.3083 0.34206 13.0539 0.34206 13.6391 1.56841L15.9915 6.49827C16.227 6.99181 16.6962 7.33271 17.2384 7.40418L22.6539 8.11804C24.001 8.29562 24.5405 9.95581 23.555 10.8913L19.5933 14.652C19.1967 15.0285 19.0175 15.5801 19.1171 16.1178L20.1116 21.4888C20.359 22.8249 18.9468 23.851 17.7525 23.2028L12.9517 20.5972C12.4711 20.3363 11.8911 20.3363 11.4105 20.5972L6.60963 23.2028C5.41538 23.851 4.00314 22.8249 4.25055 21.4888L5.2451 16.1178C5.34467 15.5801 5.16545 15.0285 4.76884 14.652L0.807199 10.8913C-0.178296 9.95581 0.361133 8.29562 1.70829 8.11804L7.12381 7.40418C7.66597 7.33271 8.13517 6.99181 8.37068 6.49827L10.7231 1.56841Z" fill="#FFF177"/>
</svg>
