<svg width="239" height="30" viewBox="0 0 239 30" fill="none" xmlns="http://www.w3.org/2000/svg">
<path d="M13.7231 3.56841C14.3083 2.34206 16.0539 2.34206 16.6391 3.56841L18.9915 8.49827C19.227 8.99181 19.6962 9.33271 20.2384 9.40418L25.6539 10.118C27.001 10.2956 27.5405 11.9558 26.555 12.8913L22.5933 16.652C22.1967 17.0285 22.0175 17.5801 22.1171 18.1178L23.1116 23.4888C23.359 24.8249 21.9468 25.851 20.7525 25.2028L15.9517 22.5972C15.4711 22.3363 14.8911 22.3363 14.4105 22.5972L9.60963 25.2028C8.41538 25.851 7.00314 24.8249 7.25055 23.4888L8.2451 18.1178C8.34467 17.5801 8.16545 17.0285 7.76884 16.652L3.8072 12.8913C2.8217 11.9558 3.36113 10.2956 4.70829 10.118L10.1238 9.40418C10.666 9.33271 11.1352 8.99181 11.3707 8.49827L13.7231 3.56841Z" fill="#FFF177"/>
<path d="M48.3976 3.56841C48.9828 2.34206 50.7285 2.34206 51.3136 3.56841L53.6661 8.49827C53.9016 8.99181 54.3708 9.33271 54.9129 9.40418L60.3284 10.118C61.6756 10.2956 62.215 11.9558 61.2295 12.8913L57.2679 16.652C56.8713 17.0285 56.6921 17.5801 56.7916 18.1178L57.7862 23.4888C58.0336 24.8249 56.6214 25.851 55.4271 25.2028L50.6263 22.5972C50.1456 22.3363 49.5657 22.3363 49.085 22.5972L44.2842 25.2028C43.0899 25.851 41.6777 24.8249 41.9251 23.4888L42.9197 18.1178C43.0192 17.5801 42.84 17.0285 42.4434 16.652L38.4818 12.8913C37.4963 11.9558 38.0357 10.2956 39.3829 10.118L44.7984 9.40418C45.3405 9.33271 45.8097 8.99181 46.0452 8.49827L48.3976 3.56841Z" fill="#FFF177"/>
<path d="M83.0722 3.56841C83.6574 2.34206 85.403 2.34206 85.9882 3.56841L88.3406 8.49827C88.5761 8.99181 89.0453 9.33271 89.5875 9.40418L95.003 10.118C96.3502 10.2956 96.8896 11.9558 95.9041 12.8913L91.9424 16.652C91.5458 17.0285 91.3666 17.5801 91.4662 18.1178L92.4607 23.4888C92.7082 24.8249 91.2959 25.851 90.1017 25.2028L85.3008 22.5972C84.8202 22.3363 84.2402 22.3363 83.7596 22.5972L78.9588 25.2028C77.7645 25.851 76.3523 24.8249 76.5997 23.4888L77.5942 18.1178C77.6938 17.5801 77.5146 17.0285 77.118 16.652L73.1563 12.8913C72.1708 11.9558 72.7103 10.2956 74.0574 10.118L79.4729 9.40418C80.0151 9.33271 80.4843 8.99181 80.7198 8.49827L83.0722 3.56841Z" fill="#FFF177"/>
<path d="M117.747 3.56841C118.332 2.34206 120.078 2.34206 120.663 3.56841L123.015 8.49827C123.251 8.99181 123.72 9.33271 124.262 9.40418L129.678 10.118C131.025 10.2956 131.564 11.9558 130.579 12.8913L126.617 16.652C126.221 17.0285 126.041 17.5801 126.141 18.1178L127.135 23.4888C127.383 24.8249 125.971 25.851 124.776 25.2028L119.975 22.5972C119.495 22.3363 118.915 22.3363 118.434 22.5972L113.633 25.2028C112.439 25.851 111.027 24.8249 111.274 23.4888L112.269 18.1178C112.368 17.5801 112.189 17.0285 111.793 16.652L107.831 12.8913C106.846 11.9558 107.385 10.2956 108.732 10.118L114.148 9.40418C114.69 9.33271 115.159 8.99181 115.394 8.49827L117.747 3.56841Z" fill="#FFF177"/>
<path d="M152.421 3.56841C153.007 2.34206 154.752 2.34206 155.337 3.56841L157.69 8.49827C157.925 8.99181 158.394 9.33271 158.937 9.40418L164.352 10.118C165.699 10.2956 166.239 11.9558 165.253 12.8913L161.292 16.652C160.895 17.0285 160.716 17.5801 160.815 18.1178L161.81 23.4888C162.057 24.8249 160.645 25.851 159.451 25.2028L154.65 22.5972C154.169 22.3363 153.589 22.3363 153.109 22.5972L148.308 25.2028C147.114 25.851 145.701 24.8249 145.949 23.4888L146.943 18.1178C147.043 17.5801 146.864 17.0285 146.467 16.652L142.505 12.8913C141.52 11.9558 142.059 10.2956 143.407 10.118L148.822 9.40418C149.364 9.33271 149.833 8.99181 150.069 8.49827L152.421 3.56841Z" fill="#FFF177"/>
<path d="M195.428 20.3502V18.7564L202.459 7.63144H203.615V10.1002H202.834L197.522 18.5064V18.6314H206.99V20.3502H195.428ZM202.959 23.6314V19.8658V19.1236V7.63144H204.803V23.6314H202.959ZM216.041 23.7564C215.656 23.7564 215.325 23.6184 215.049 23.3424C214.773 23.0663 214.635 22.7356 214.635 22.3502C214.635 21.9648 214.773 21.634 215.049 21.358C215.325 21.082 215.656 20.9439 216.041 20.9439C216.427 20.9439 216.757 21.082 217.033 21.358C217.309 21.634 217.447 21.9648 217.447 22.3502C217.447 22.6054 217.382 22.8398 217.252 23.0533C217.127 23.2669 216.958 23.4387 216.744 23.5689C216.536 23.6939 216.302 23.7564 216.041 23.7564ZM230.856 23.8502C229.783 23.8502 228.835 23.6601 228.012 23.2799C227.194 22.8945 226.556 22.3658 226.098 21.6939C225.639 21.0169 225.413 20.246 225.418 19.3814C225.413 18.7044 225.546 18.0794 225.817 17.5064C226.087 16.9283 226.457 16.4465 226.926 16.0611C227.4 15.6705 227.929 15.4231 228.512 15.3189V15.2252C227.746 15.0273 227.137 14.5976 226.684 13.9361C226.231 13.2695 226.007 12.5116 226.012 11.6627C226.007 10.8502 226.212 10.1236 226.629 9.483C227.046 8.84238 227.619 8.33717 228.348 7.96738C229.082 7.59758 229.918 7.41269 230.856 7.41269C231.783 7.41269 232.611 7.59758 233.34 7.96738C234.069 8.33717 234.642 8.84238 235.059 9.483C235.481 10.1236 235.694 10.8502 235.699 11.6627C235.694 12.5116 235.462 13.2695 235.004 13.9361C234.551 14.5976 233.949 15.0273 233.199 15.2252V15.3189C233.777 15.4231 234.298 15.6705 234.762 16.0611C235.225 16.4465 235.595 16.9283 235.871 17.5064C236.147 18.0794 236.288 18.7044 236.293 19.3814C236.288 20.246 236.054 21.0169 235.59 21.6939C235.132 22.3658 234.494 22.8945 233.676 23.2799C232.863 23.6601 231.923 23.8502 230.856 23.8502ZM230.856 22.1314C231.58 22.1314 232.205 22.0143 232.731 21.7799C233.257 21.5455 233.663 21.2148 233.949 20.7877C234.236 20.3606 234.382 19.8606 234.387 19.2877C234.382 18.6835 234.225 18.1497 233.918 17.6861C233.611 17.2226 233.192 16.858 232.66 16.5924C232.134 16.3268 231.533 16.1939 230.856 16.1939C230.173 16.1939 229.564 16.3268 229.027 16.5924C228.496 16.858 228.077 17.2226 227.77 17.6861C227.468 18.1497 227.319 18.6835 227.324 19.2877C227.319 19.8606 227.457 20.3606 227.738 20.7877C228.025 21.2148 228.434 21.5455 228.965 21.7799C229.496 22.0143 230.126 22.1314 230.856 22.1314ZM230.856 14.5377C231.429 14.5377 231.936 14.4231 232.379 14.1939C232.827 13.9648 233.179 13.6445 233.434 13.233C233.689 12.8215 233.819 12.3398 233.824 11.7877C233.819 11.246 233.692 10.7747 233.442 10.3736C233.192 9.96738 232.845 9.65488 232.402 9.43613C231.96 9.21217 231.444 9.10019 230.856 9.10019C230.257 9.10019 229.733 9.21217 229.285 9.43613C228.837 9.65488 228.491 9.96738 228.246 10.3736C228.001 10.7747 227.882 11.246 227.887 11.7877C227.882 12.3398 228.004 12.8215 228.254 13.233C228.509 13.6445 228.861 13.9648 229.309 14.1939C229.757 14.4231 230.272 14.5377 230.856 14.5377Z" fill="#60464C"/>
</svg>
