<svg width="18" height="18" viewBox="0 0 18 18" fill="none" xmlns="http://www.w3.org/2000/svg">
<g id="Frame 25">
<path id="Vector" d="M10.6 16.6H7.4C4.38301 16.6 2.87452 16.6 1.93726 15.6627C1 14.7255 1 13.217 1 10.2V8.60001C1 5.58302 1 4.07453 1.93726 3.13727C2.87452 2.20001 4.38301 2.20001 7.4 2.20001H10.6C13.617 2.20001 15.1255 2.20001 16.0627 3.13727C17 4.07453 17 5.58302 17 8.60001V10.2C17 13.217 17 14.7255 16.0627 15.6627C15.5402 16.1853 14.8401 16.4165 13.8 16.5188" stroke="#60464C" stroke-width="1.2" stroke-linecap="round"/>
<path id="Vector_2" d="M5 2.2V1" stroke="#60464C" stroke-width="1.2" stroke-linecap="round"/>
<path id="Vector_3" d="M13 2.2V1" stroke="#60464C" stroke-width="1.2" stroke-linecap="round"/>
<path id="Vector_4" d="M16.6 6.20001H12.7H8M1 6.20001H4.1" stroke="#60464C" stroke-width="1.2" stroke-linecap="round"/>
<path id="Vector_5" d="M13.4002 12.6C13.4002 12.8209 13.2211 13 13.0002 13C12.7793 13 12.6002 12.8209 12.6002 12.6C12.6002 12.3791 12.7793 12.2 13.0002 12.2C13.2211 12.2 13.4002 12.3791 13.4002 12.6Z" fill="#1C274C" stroke="#60464C" stroke-width="0.8"/>
<path id="Vector_6" d="M13.4002 9.39998C13.4002 9.6209 13.2211 9.79998 13.0002 9.79998C12.7793 9.79998 12.6002 9.6209 12.6002 9.39998C12.6002 9.17905 12.7793 8.99998 13.0002 8.99998C13.2211 8.99998 13.4002 9.17905 13.4002 9.39998Z" fill="#1C274C" stroke="#60464C" stroke-width="0.8"/>
<path id="Vector_7" d="M9.4002 12.6C9.4002 12.8209 9.22112 13 9.0002 13C8.77927 13 8.6002 12.8209 8.6002 12.6C8.6002 12.3791 8.77927 12.2 9.0002 12.2C9.22112 12.2 9.4002 12.3791 9.4002 12.6Z" fill="#1C274C" stroke="#60464C" stroke-width="0.8"/>
<path id="Vector_8" d="M9.4002 9.39998C9.4002 9.6209 9.22112 9.79998 9.0002 9.79998C8.77927 9.79998 8.6002 9.6209 8.6002 9.39998C8.6002 9.17905 8.77927 8.99998 9.0002 8.99998C9.22112 8.99998 9.4002 9.17905 9.4002 9.39998Z" fill="#1C274C" stroke="#60464C" stroke-width="0.8"/>
<path id="Vector_9" d="M5.4002 12.6C5.4002 12.8209 5.22111 13 5.0002 13C4.77928 13 4.6002 12.8209 4.6002 12.6C4.6002 12.3791 4.77928 12.2 5.0002 12.2C5.22111 12.2 5.4002 12.3791 5.4002 12.6Z" fill="#1C274C" stroke="#60464C" stroke-width="0.8"/>
<path id="Vector_10" d="M5.4002 9.39998C5.4002 9.6209 5.22111 9.79998 5.0002 9.79998C4.77928 9.79998 4.6002 9.6209 4.6002 9.39998C4.6002 9.17905 4.77928 8.99998 5.0002 8.99998C5.22111 8.99998 5.4002 9.17905 5.4002 9.39998Z" fill="#1C274C" stroke="#60464C" stroke-width="0.8"/>
</g>
</svg>
