<svg width="20" height="19" viewBox="0 0 20 19" fill="none" xmlns="http://www.w3.org/2000/svg">
<path d="M11.0906 12.4082L14.2738 9.22496M14.2738 9.22496L11.0906 6.04173M14.2738 9.22496H5.78521M4.93635 17.7136H15.1227C16.3112 17.7136 16.9055 17.7136 17.3595 17.4823C17.7588 17.2789 18.0834 16.9542 18.2868 16.5549C18.5182 16.101 18.5182 15.5067 18.5182 14.3181V4.13178C18.5182 2.94327 18.5182 2.349 18.2868 1.89505C18.0834 1.49573 17.7588 1.17108 17.3595 0.967633C16.9055 0.736328 16.3112 0.736328 15.1227 0.736328H4.93635C3.74783 0.736328 3.15356 0.736328 2.69961 0.967633C2.3003 1.17108 1.97565 1.49573 1.7722 1.89505C1.54089 2.349 1.54089 2.94326 1.54089 4.13178V14.3181C1.54089 15.5067 1.54089 16.101 1.7722 16.5549C1.97565 16.9542 2.3003 17.2789 2.69961 17.4823C3.15356 17.7136 3.74782 17.7136 4.93635 17.7136Z" stroke="white" stroke-width="1.13182" stroke-linecap="round" stroke-linejoin="round"/>
</svg>
