<svg width="17" height="17" viewBox="0 0 17 17" fill="none" xmlns="http://www.w3.org/2000/svg">
<path id="Vector" d="M9.4375 11.3125L12.25 8.5M12.25 8.5L9.4375 5.6875M12.25 8.5H4.75M4 16H13C14.0501 16 14.5752 16 14.9763 15.7956C15.329 15.6159 15.6159 15.329 15.7956 14.9763C16 14.5752 16 14.0501 16 13V4C16 2.94991 16 2.42485 15.7956 2.02377C15.6159 1.67096 15.329 1.38412 14.9763 1.20437C14.5752 1 14.0501 1 13 1H4C2.94991 1 2.42485 1 2.02377 1.20437C1.67096 1.38412 1.38412 1.67096 1.20437 2.02377C1 2.42485 1 2.9499 1 4V13C1 14.0501 1 14.5752 1.20437 14.9763C1.38412 15.329 1.67096 15.6159 2.02377 15.7956C2.42485 16 2.9499 16 4 16Z" stroke="white" stroke-linecap="round" stroke-linejoin="round"/>
</svg>
