<svg width="19" height="19" viewBox="0 0 19 19" fill="none" xmlns="http://www.w3.org/2000/svg">
<g id="Frame 26">
<path id="Vector" d="M1 9.5C1 14.1944 4.80558 18 9.5 18C11.0482 18 12.4997 17.5861 13.75 16.8629M9.5 1C14.1944 1 18 4.80558 18 9.5C18 11.0482 17.5861 12.4997 16.8629 13.75" stroke="#60464C" stroke-width="1.275" stroke-linecap="round"/>
<path id="Vector_2" d="M9.5 6.95001V10.35H12.9" stroke="#60464C" stroke-width="1.275" stroke-linecap="round" stroke-linejoin="round"/>
<path id="Vector_3" d="M13.75 16.8629C12.4997 17.5861 11.0482 18 9.5 18C4.80558 18 1 14.1944 1 9.5C1 4.80558 4.80558 1 9.5 1C14.1944 1 18 4.80558 18 9.5C18 11.0482 17.5861 12.4997 16.8629 13.75" stroke="#60464C" stroke-width="1.275" stroke-linecap="round" stroke-dasharray="0.42 2.97"/>
</g>
</svg>
